# Hierarchical Translation and Rotation (.htr) file
# Generated by EVaRT
[Header]
FileType htr
DataType HTRS
FileVersion 1
NumSegments 23
NumFrames 4
DataFrameRate 120
EulerRotationOrder ZYX
CalibrationUnits mm
RotationUnits Degrees
GlobalAxisofGravity Y
BoneLengthAxis Y
ScaleFactor 1
[SegmentNames&Hierarchy]
#CHILD            PARENT
DaveRoot          GLOBAL
Spine1            DaveRoot
Spine2            Spine1
Spine3            Spine2
Spine4            Spine3
Neck              Spine4
Head              Neck
LClavicle         Spine4
LUpperArm         LClavicle
LLowerArm         LUpperArm
LHand             LLowerArm
RClavicle         Spine4
RUpperArm         RClavicle
RLowerArm         RUpperArm
RHand             RLowerArm
RUpperLeg         DaveRoot
RLowerLeg         RUpperLeg
RFoot             RLowerLeg
RToes             RFoot
LUpperLeg         DaveRoot
LLowerLeg         LUpperLeg
LFoot             LLowerLeg
LToes             LFoot
[BasePosition]
#SegmentName      Tx   Ty   Tz   Rx   Ry   Rz   BoneLength
DaveRoot          -2055.569378	951.555595	-349.488296	-55.286396	87.050266	-65.121985	100.000000
Spine1            0.000000	100.000000	0.000000	-15.583766	0.109194	-2.004305	100.000000
Spine2            0.000000	100.000000	0.000000	5.873579	0.737526	-1.849210	100.000000
Spine3            0.000000	100.000000	0.000000	12.197367	0.936767	-1.756723	100.000000
Spine4            0.000000	100.000000	0.000000	13.310112	2.040835	-0.212222	100.000000
Neck              0.000000	100.000000	0.000000	12.619245	0.173111	5.676401	80.000000
Head              0.000000	80.000000	0.000000	-46.107413	-7.464542	12.340102	200.000000
LClavicle         0.000000	100.000000	0.000000	1.044460	-1.911847	-125.483710	200.000000
LUpperArm         0.000000	200.000000	0.000000	43.357802	45.679579	2.001361	300.000000
LLowerArm         0.000000	300.000000	0.000000	0.730208	2.175812	1.895763	200.000000
LHand             0.000000	200.000000	0.000000	7.864047	-1.768569	8.793625	120.000000
RClavicle         0.000000	100.000000	0.000000	-0.545713	-3.840301	119.120382	200.000000
RUpperArm         0.000000	200.000000	0.000000	38.253382	-38.646808	20.273438	300.000000
RLowerArm         0.000000	300.000000	0.000000	3.077531	-3.682026	-7.348670	200.000000
RHand             0.000000	200.000000	0.000000	24.943087	4.220171	-5.193807	120.000000
RUpperLeg         -115.911102	-10.000000	31.058285	22.464267	14.037388	-176.329742	530.000000
RLowerLeg         0.000000	530.000000	0.000000	-23.704548	0.479387	-2.520024	460.000000
RFoot             0.000000	460.000000	0.000000	90.327319	5.730808	-0.531790	130.000000
RToes             0.000000	130.000000	0.000000	18.726053	0.005479	-0.002881	100.000000
LUpperLeg         115.911102	-10.000000	31.058285	16.272232	9.077962	178.396881	530.000000
LLowerLeg         0.000000	530.000000	0.000000	-9.044305	-3.275937	3.046484	460.000000
LFoot             0.000000	460.000000	0.000000	80.193205	-12.160808	23.252942	130.000000
LToes             0.000000	130.000000	0.000000	33.283153	-0.000000	-0.000086	100.000000
#Beginning of Data.
[DaveRoot]
#Fr	Tx	Ty	Tz	Rx	Ry	Rz	SF
1018	1247.002207	-431.389788	548.566996	21.735846	-16.330185	-2.238685	1.000000	
1019	1246.420216	-429.200766	548.173649	21.283414	-17.448254	-1.869459	1.000000	
1020	1245.750951	-426.855626	547.884411	20.878598	-18.527698	-1.503474	1.000000	
1021	1244.948524	-424.322643	547.719739	20.516500	-19.566217	-1.143686	1.000000	
[Spine1]
#Fr	Tx	Ty	Tz	Rx	Ry	Rz	SF
1018	0.000000	0.000000	0.000000	2.548362	4.269853	5.474269	1.000000	
1019	0.000000	0.000000	0.000000	2.481555	4.100507	5.426836	1.000000	
1020	0.000000	0.000000	0.000000	2.415306	3.917941	5.379575	1.000000	
1021	0.000000	0.000000	0.000000	2.358482	3.724637	5.333212	1.000000	
[Spine2]
#Fr	Tx	Ty	Tz	Rx	Ry	Rz	SF
1018	0.000000	0.000000	0.000000	2.548362	4.269853	5.474269	1.000000	
1019	0.000000	0.000000	0.000000	2.481555	4.100507	5.426836	1.000000	
1020	0.000000	0.000000	0.000000	2.415306	3.917941	5.379575	1.000000	
1021	0.000000	0.000000	0.000000	2.358482	3.724637	5.333212	1.000000	
[Spine3]
#Fr	Tx	Ty	Tz	Rx	Ry	Rz	SF
1018	0.000000	0.000000	0.000000	2.548362	4.269853	5.474269	1.000000	
1019	0.000000	0.000000	0.000000	2.481555	4.100507	5.426836	1.000000	
1020	0.000000	0.000000	0.000000	2.415306	3.917941	5.379575	1.000000	
1021	0.000000	0.000000	0.000000	2.358482	3.724637	5.333212	1.000000	
[Spine4]
#Fr	Tx	Ty	Tz	Rx	Ry	Rz	SF
1018	0.000000	0.000000	0.000000	2.548362	4.269853	5.474269	1.000000	
1019	0.000000	0.000000	0.000000	2.481555	4.100507	5.426836	1.000000	
1020	0.000000	0.000000	0.000000	2.415306	3.917941	5.379575	1.000000	
1021	0.000000	0.000000	0.000000	2.358482	3.724637	5.333212	1.000000	
[Neck]
#Fr	Tx	Ty	Tz	Rx	Ry	Rz	SF
1018	0.000000	0.000000	0.000000	-7.996574	-10.965037	-5.220284	1.000000	
1019	0.000000	0.000000	0.000000	-8.261220	-10.657744	-5.033047	1.000000	
1020	0.000000	0.000000	0.000000	-8.560504	-10.316211	-4.841634	1.000000	
1021	0.000000	0.000000	0.000000	-8.912821	-9.956194	-4.637040	1.000000	
[Head]
#Fr	Tx	Ty	Tz	Rx	Ry	Rz	SF
1018	0.000000	0.000000	0.000000	-7.996574	-10.965037	-5.220284	1.000000	
1019	0.000000	0.000000	0.000000	-8.261220	-10.657744	-5.033047	1.000000	
1020	0.000000	0.000000	0.000000	-8.560504	-10.316211	-4.841634	1.000000	
1021	0.000000	0.000000	0.000000	-8.912821	-9.956194	-4.637040	1.000000	
[LClavicle]
#Fr	Tx	Ty	Tz	Rx	Ry	Rz	SF
1018	0.000000	0.000000	0.000000	13.860919	-0.799387	24.250664	1.000000	
1019	0.000000	0.000000	0.000000	13.675506	-0.707257	23.918690	1.000000	
1020	0.000000	0.000000	0.000000	13.492067	-0.620658	23.599566	1.000000	
1021	0.000000	0.000000	0.000000	13.280940	-0.536080	23.284502	1.000000	
[LUpperArm]
#Fr	Tx	Ty	Tz	Rx	Ry	Rz	SF
1018	0.000000	0.000000	0.000000	60.405844	61.394240	62.170074	1.000000	
1019	0.000000	0.000000	0.000000	55.409203	59.737968	55.729895	1.000000	
1020	0.000000	0.000000	0.000000	50.293215	57.585169	49.221852	1.000000	
1021	0.000000	0.000000	0.000000	45.220106	54.839011	42.891014	1.000000	
[LLowerArm]
#Fr	Tx	Ty	Tz	Rx	Ry	Rz	SF
1018	0.000000	0.000000	0.000000	-38.048145	-0.000000	-0.000000	1.000000	
1019	0.000000	0.000000	0.000000	-35.214148	-0.000000	-0.000000	1.000000	
1020	0.000000	0.000000	0.000000	-32.272436	-0.000000	-0.000000	1.000000	
1021	0.000000	0.000000	0.000000	-29.150958	-0.000000	-0.000000	1.000000	
[LHand]
#Fr	Tx	Ty	Tz	Rx	Ry	Rz	SF
1018	0.000000	0.000000	0.000000	4.834931	0.000000	0.000000	1.000000	
1019	0.000000	0.000000	0.000000	4.411454	-0.000000	0.000000	1.000000	
1020	0.000000	0.000000	0.000000	3.978318	0.000000	0.000000	1.000000	
1021	0.000000	0.000000	0.000000	3.511999	0.000000	0.000000	1.000000	
[RClavicle]
#Fr	Tx	Ty	Tz	Rx	Ry	Rz	SF
1018	0.000000	0.000000	0.000000	10.466757	2.462717	-24.390203	1.000000	
1019	0.000000	0.000000	0.000000	10.410766	2.393648	-24.103084	1.000000	
1020	0.000000	0.000000	0.000000	10.391952	2.328930	-23.790345	1.000000	
1021	0.000000	0.000000	0.000000	10.359124	2.251523	-23.425725	1.000000	
[RUpperArm]
#Fr	Tx	Ty	Tz	Rx	Ry	Rz	SF
1018	0.000000	0.000000	0.000000	18.661316	23.537228	-40.177241	1.000000	
1019	0.000000	0.000000	0.000000	19.206735	23.090161	-40.126299	1.000000	
1020	0.000000	0.000000	0.000000	19.677637	22.712342	-40.121905	1.000000	
1021	0.000000	0.000000	0.000000	20.163693	22.121704	-40.371043	1.000000	
[RLowerArm]
#Fr	Tx	Ty	Tz	Rx	Ry	Rz	SF
1018	0.000000	0.000000	0.000000	17.912779	-0.000000	-0.000000	1.000000	
1019	0.000000	0.000000	0.000000	18.317205	-0.000000	-0.000000	1.000000	
1020	0.000000	0.000000	0.000000	18.902675	-0.000000	-0.000000	1.000000	
1021	0.000000	0.000000	0.000000	19.163104	-0.000000	-0.000000	1.000000	
[RHand]
#Fr	Tx	Ty	Tz	Rx	Ry	Rz	SF
1018	0.000000	0.000000	0.000000	-20.869569	-3.251767	5.322564	1.000000	
1019	0.000000	0.000000	0.000000	-20.620991	-3.713662	5.617722	1.000000	
1020	0.000000	0.000000	0.000000	-20.656527	-4.350192	5.959206	1.000000	
1021	0.000000	0.000000	0.000000	-20.297510	-5.130399	6.210517	1.000000	
[RUpperLeg]
#Fr	Tx	Ty	Tz	Rx	Ry	Rz	SF
1018	0.000000	0.000000	0.000000	83.450697	-5.186696	2.301578	1.000000	
1019	0.000000	0.000000	0.000000	83.110655	-4.981266	2.933532	1.000000	
1020	0.000000	0.000000	0.000000	82.767885	-4.797976	3.534167	1.000000	
1021	0.000000	0.000000	0.000000	82.407672	-4.647494	4.091474	1.000000	
[RLowerLeg]
#Fr	Tx	Ty	Tz	Rx	Ry	Rz	SF
1018	0.000000	0.000000	0.000000	-97.573837	0.000000	0.000000	1.000000	
1019	0.000000	0.000000	0.000000	-97.129870	0.000000	0.000000	1.000000	
1020	0.000000	0.000000	0.000000	-96.654592	0.000000	0.000000	1.000000	
1021	0.000000	0.000000	0.000000	-96.138720	0.000000	0.000000	1.000000	
[RFoot]
#Fr	Tx	Ty	Tz	Rx	Ry	Rz	SF
1018	0.000000	0.000000	0.000000	25.553711	14.989099	-0.357812	1.000000	
1019	0.000000	0.000000	0.000000	24.976134	13.980050	-0.303349	1.000000	
1020	0.000000	0.000000	0.000000	24.453292	12.955264	-0.191580	1.000000	
1021	0.000000	0.000000	0.000000	24.002849	11.906076	-0.011787	1.000000	
[RToes]
#Fr	Tx	Ty	Tz	Rx	Ry	Rz	SF
1018	0.000000	0.000000	0.000000	-21.574562	0.000000	0.000000	1.000000	
1019	0.000000	0.000000	0.000000	-21.038578	-0.000000	0.000000	1.000000	
1020	0.000000	0.000000	0.000000	-20.452013	-0.000000	0.000000	1.000000	
1021	0.000000	0.000000	0.000000	-19.822726	-0.000000	0.000000	1.000000	
[LUpperLeg]
#Fr	Tx	Ty	Tz	Rx	Ry	Rz	SF
1018	0.000000	0.000000	0.000000	31.993913	-19.817107	19.350016	1.000000	
1019	0.000000	0.000000	0.000000	31.227922	-20.687061	18.987535	1.000000	
1020	0.000000	0.000000	0.000000	30.561296	-21.380104	18.698294	1.000000	
1021	0.000000	0.000000	0.000000	29.974764	-22.033698	18.387728	1.000000	
[LLowerLeg]
#Fr	Tx	Ty	Tz	Rx	Ry	Rz	SF
1018	0.000000	0.000000	0.000000	-123.466776	0.000000	-0.000000	1.000000	
1019	0.000000	0.000000	0.000000	-122.774933	0.000000	-0.000000	1.000000	
1020	0.000000	0.000000	0.000000	-122.014587	0.000000	-0.000000	1.000000	
1021	0.000000	0.000000	0.000000	-121.349120	0.000000	-0.000000	1.000000	
[LFoot]
#Fr	Tx	Ty	Tz	Rx	Ry	Rz	SF
1018	0.000000	0.000000	0.000000	13.710799	13.501515	-17.107561	1.000000	
1019	0.000000	0.000000	0.000000	13.471557	14.867398	-17.352455	1.000000	
1020	0.000000	0.000000	0.000000	13.085144	15.947589	-17.212753	1.000000	
1021	0.000000	0.000000	0.000000	12.837751	15.674067	-17.721436	1.000000	
[LToes]
#Fr	Tx	Ty	Tz	Rx	Ry	Rz	SF
1018	0.000000	0.000000	0.000000	32.627768	-0.000000	0.000000	1.000000	
1019	0.000000	0.000000	0.000000	34.797141	-0.000000	0.000000	1.000000	
1020	0.000000	0.000000	0.000000	36.683113	-0.000000	0.000000	1.000000	
1021	0.000000	0.000000	0.000000	36.705600	-0.000000	0.000000	1.000000	
